<?xml version="1.0" encoding="UTF-8"?>
<svg id="Livello_2" data-name="Livello 2" xmlns="http://www.w3.org/2000/svg" viewBox="0 0 335.45 204.95">
  <defs>
    <style>
      .cls-1 {
        fill: #d16a3c;
      }

      .cls-2 {
        fill: #cd5832;
      }

      .cls-3 {
        fill: #fff;
      }

      .cls-4 {
        fill: #f5d32b;
      }

      .cls-5 {
        fill: #ca4644;
      }

      .cls-6 {
        fill: #9f1f1e;
      }

      .cls-7 {
        fill: #222221;
      }

      .cls-8 {
        fill: #d98737;
      }
    </style>
  </defs>
  <g id="Livello_1-2" data-name="Livello 1">
    <g>
      <g>
        <path class="cls-7" d="M30.17,14.54c-2.3-2.16-6.62-3.74-10.08-3.74s-5.04,1.22-5.04,3.46c0,2.02,1.87,3.17,4.61,4.18,7.06,2.52,19.73,4.32,19.73,15.77,0,9.29-7.7,15.27-19.59,15.27-7.56,0-15.41-2.95-19.8-7.49l6.98-8.14c2.74,2.74,8.28,4.82,12.96,4.82,4.32,0,6.55-1.22,6.55-3.82,0-2.45-2.95-3.74-6.84-4.9-7.27-2.09-17.64-4.68-17.64-14.91C2.02,5.9,9.07,0,20.31,0c6.91,0,14.04,2.66,17.14,6.41l-7.27,8.14Z"/>
        <path class="cls-7" d="M79.35,12.75h-13.75v35.86h-12.24V12.75h-13.75V1.22h39.75v11.52Z"/>
        <path class="cls-7" d="M91.37,1.22h14.04l17.64,47.38h-13.39l-2.81-7.56h-16.92l-2.81,7.56h-13.39L91.37,1.22ZM93.6,30.96h9.58l-4.68-15.63h-.14l-4.75,15.63Z"/>
        <path class="cls-7" d="M157.75,12.75h-13.75v35.86h-12.24V12.75h-13.75V1.22h39.75v11.52Z"/>
        <path class="cls-7" d="M174.74,48.6h-12.24V1.22h12.24v47.38Z"/>
      </g>
      <g>
        <path class="cls-7" d="M49.47,88.73c-.36,13.97-9.36,22.9-24.34,22.9S0,100.82,0,87s10.37-24.77,25.42-24.77c8.86,0,16.85,4.46,21.03,11.38l-10.23,6.34c-2.02-3.67-5.9-6.19-11.09-6.19-7.27,0-12.89,5.33-12.89,13.18s5.69,13.18,12.89,13.18c8.28,0,10.08-3.67,10.66-6.26h-10.3v-10.08h23.98v4.97Z"/>
        <path class="cls-7" d="M90.72,110.69h-36.58v-47.38h36.22v11.23h-23.98v6.98h22.97v10.8h-22.97v7.13h24.34v11.23Z"/>
        <path class="cls-7" d="M96.19,63.31h13.32l18.94,26.71v-26.71h12.31v47.38h-12.53l-19.73-28.8v28.8h-12.31v-47.38Z"/>
        <path class="cls-7" d="M183.82,110.69h-36.58v-47.38h36.22v11.23h-23.98v6.98h22.97v10.8h-22.97v7.13h24.34v11.23Z"/>
        <path class="cls-7" d="M189.29,110.69v-47.38h22.61c12.17,0,18.07,7.2,18.07,15.84,0,5.76-3.74,10.66-9.22,13.25l10.58,18.29h-13.46l-8.86-16.35h-7.49v16.35h-12.24ZM201.53,74.83v9h10.37c3.31,0,5.83-1.15,5.83-4.54s-2.52-4.46-5.83-4.46h-10.37Z"/>
        <path class="cls-7" d="M249.77,63.31h14.04l17.64,47.38h-13.39l-2.81-7.56h-16.92l-2.81,7.56h-13.39l17.64-47.38ZM252,93.05h9.58l-4.68-15.63h-.14l-4.75,15.63Z"/>
        <path class="cls-7" d="M318.89,110.69h-33.55v-47.38h12.24v35.86h21.31v11.52Z"/>
        <path class="cls-7" d="M335.16,110.69h-12.24v-47.38h12.24v47.38Z"/>
      </g>
      <g>
        <path class="cls-7" d="M74.77,204.95h-20.25v-78.37h58.48v18.58h-38.23v11.55h37.16v17.86h-37.16v30.37Z"/>
        <path class="cls-7" d="M140.03,126.59h23.22l29.18,78.37h-22.15l-4.64-12.5h-27.99l-4.64,12.5h-22.15l29.18-78.37ZM143.72,175.78h15.84l-7.74-25.84h-.24l-7.86,25.84Z"/>
        <path class="cls-7" d="M198.86,204.95v-78.37h37.4c20.13,0,29.89,11.91,29.89,26.2,0,9.53-6.19,17.63-15.24,21.91l17.51,30.25h-22.27l-14.65-27.03h-12.39v27.03h-20.25ZM219.1,145.64v14.89h17.15c5.48,0,9.65-1.91,9.65-7.5s-4.17-7.38-9.65-7.38h-17.15Z"/>
        <path class="cls-7" d="M335.45,204.95h-60.5v-78.37h59.91v18.58h-39.66v11.55h37.99v17.86h-37.99v11.79h40.25v18.58Z"/>
      </g>
      <g>
        <polygon class="cls-6" points="335.13 48.91 189.96 48.91 189.96 24.81 250.81 36.13 275.92 41.78 335.13 48.91"/>
        <polygon class="cls-5" points="260.07 25.24 189.96 24.64 189.96 .87 251.67 .87 261.61 16.16 260.07 25.24"/>
        <path class="cls-4" d="M190.06,22.94c-.06.64-.1,1.29-.1,1.95h0c0,.66.04,1.31.1,1.95.06-.66.15-1.31.27-1.95-.12-.64-.21-1.29-.27-1.95Z"/>
        <polygon class="cls-8" points="286.74 16.88 262.55 24.89 286.74 32.89 335.13 24.89 286.74 16.88"/>
        <path class="cls-6" d="M190.06,26.84c-.06.63-.1,1.27-.1,1.92h0c0,11.13,9.02,20.15,20.15,20.15h125.01l-48.39-16.01-73.08,12.09c-11.76,1.95-22.5-6.55-23.6-18.15Z"/>
        <path class="cls-2" d="M216.44,40.14c-11.77,3.9-23.87-3.64-26.11-15.26-.12.64-.21,1.29-.27,1.95,1.09,11.6,11.84,20.09,23.6,18.15l73.08-12.09-24.19-8.01-46.1,15.26Z"/>
        <path class="cls-5" d="M213.66,4.79l73.08,12.09L335.13.87h-125.01c-11.13,0-20.15,9.02-20.15,20.15h0c0,.65.04,1.29.1,1.92,1.09-11.6,11.84-20.09,23.6-18.15Z"/>
        <path class="cls-1" d="M216.44,9.63l46.1,15.26,24.19-8.01-73.08-12.09c-11.76-1.95-22.5,6.55-23.6,18.15.06.66.15,1.31.27,1.95,2.24-11.61,14.33-19.15,26.11-15.26Z"/>
        <path class="cls-4" d="M190.33,24.89c2.24,11.61,14.33,19.15,26.11,15.26l46.1-15.26-46.1-15.26c-11.77-3.9-23.87,3.64-26.11,15.26Z"/>
      </g>
      <rect class="cls-1" x=".52" y="126.65" width="39.09" height="78.3"/>
      <g>
        <path class="cls-3" d="M30.42,192.29l-20.71-4.16v-7.18c0-6.3,4.66-9.41,10.36-8.28s10.36,5.51,10.36,12.43v7.18ZM11.95,186.19l16.24,3.24v-4.75c0-5-3.71-8.66-8.12-9.54-4.41-.88-8.12,1.29-8.12,6.3v4.75Z"/>
        <path class="cls-3" d="M30.42,157.35v14.04l-20.71-4.16v-13.88l2.23.47v11.43l6.71,1.35v-11.3l2.23.44v11.3l7.3,1.48v-11.62l2.23.44Z"/>
        <path class="cls-3" d="M30.42,139.75v14.04l-20.71-4.16v-2.42l18.48,3.71v-11.62l2.23.44Z"/>
      </g>
    </g>
  </g>
</svg>